<?xml version="1.0" standalone="no"?>
<!DOCTYPE svg PUBLIC "-//W3C//DTD SVG 20010904//EN"
 "http://www.w3.org/TR/2001/REC-SVG-20010904/DTD/svg10.dtd">
<svg version="1.0" xmlns="http://www.w3.org/2000/svg"
 width="654.000000pt" height="486.000000pt" viewBox="0 0 654.000000 486.000000"
 preserveAspectRatio="xMidYMid meet">
<metadata>
Created by potrace 1.10, written by Peter Selinger 2001-2011
</metadata>
<g transform="translate(0.000000,486.000000) scale(0.100000,-0.100000)"
fill="#000000" stroke="none">
<path d="M2682 4407 c-12 -13 -22 -31 -22 -40 0 -10 -7 -20 -15 -23 -8 -4 -15
-12 -15 -19 0 -7 7 -15 15 -19 8 -3 15 -14 15 -24 0 -11 7 -25 15 -32 8 -7 15
-27 15 -45 0 -18 7 -38 15 -45 8 -7 15 -20 15 -30 0 -10 7 -23 15 -30 8 -7 15
-20 15 -30 0 -10 7 -23 15 -30 8 -7 15 -20 15 -30 0 -10 7 -23 15 -30 8 -7 15
-20 15 -30 0 -10 7 -23 15 -30 8 -7 15 -20 15 -30 0 -10 7 -23 15 -30 8 -7 15
-20 15 -30 0 -10 7 -23 15 -30 8 -7 15 -20 15 -30 0 -10 7 -23 15 -30 8 -7 15
-27 15 -45 0 -18 7 -38 15 -45 8 -7 15 -20 15 -30 0 -10 7 -23 15 -30 8 -7 15
-20 15 -30 0 -10 7 -23 15 -30 8 -7 15 -20 15 -30 0 -10 7 -23 15 -30 8 -7 15
-20 15 -30 0 -10 7 -23 15 -30 8 -7 15 -20 15 -30 0 -10 7 -23 15 -30 8 -7 15
-20 15 -30 0 -10 7 -23 15 -30 8 -7 15 -20 15 -30 0 -10 7 -23 15 -30 8 -7 15
-20 15 -30 0 -10 7 -23 15 -30 8 -7 15 -27 15 -45 0 -18 7 -38 15 -45 8 -7 15
-20 15 -30 0 -10 7 -23 15 -30 8 -7 15 -20 15 -30 0 -10 7 -23 15 -30 8 -7 15
-20 15 -30 0 -10 7 -23 15 -30 8 -7 15 -20 15 -30 0 -10 7 -23 15 -30 8 -7 15
-20 15 -30 0 -10 7 -23 15 -30 8 -7 15 -20 15 -30 0 -10 7 -23 15 -30 8 -7 15
-20 15 -30 0 -10 7 -23 15 -30 8 -7 15 -27 15 -45 0 -18 7 -38 15 -45 8 -7 15
-20 15 -30 0 -10 7 -23 15 -30 8 -7 15 -20 15 -30 0 -10 7 -23 15 -30 8 -7 15
-20 15 -30 0 -10 7 -23 15 -30 8 -7 15 -20 15 -30 0 -10 7 -23 15 -30 8 -7 15
-20 15 -30 0 -10 7 -23 15 -30 8 -7 15 -20 15 -30 0 -10 7 -23 15 -30 8 -7 15
-20 15 -30 0 -10 7 -23 15 -30 8 -7 15 -20 15 -30 0 -10 7 -23 15 -30 8 -7 15
-27 15 -45 0 -18 7 -38 15 -45 8 -7 15 -20 15 -30 0 -10 7 -23 15 -30 8 -7 15
-20 15 -30 0 -10 7 -23 15 -30 8 -7 15 -20 15 -30 0 -10 7 -23 15 -30 8 -7 15
-20 15 -30 0 -10 7 -23 15 -30 8 -7 15 -20 15 -30 0 -10 7 -23 15 -30 8 -7 15
-20 15 -30 0 -10 7 -23 15 -30 8 -7 15 -20 15 -30 0 -10 7 -23 15 -30 8 -7 15
-27 15 -45 0 -18 7 -38 15 -45 8 -7 15 -20 15 -30 0 -10 7 -23 15 -30 8 -7 15
-20 15 -30 0 -10 7 -23 15 -30 8 -7 15 -20 15 -30 0 -10 7 -23 15 -30 8 -7 15
-20 15 -30 0 -10 7 -23 15 -30 8 -7 15 -20 15 -30 0 -10 7 -23 15 -30 8 -7 15
-20 15 -30 0 -10 7 -23 15 -30 8 -7 15 -20 15 -30 0 -10 7 -23 15 -30 8 -7 15
-20 15 -30 0 -10 7 -23 15 -30 8 -7 15 -27 15 -45 0 -18 7 -38 15 -45 8 -7 15
-20 15 -30 0 -10 7 -23 15 -30 8 -7 15 -20 15 -30 0 -10 7 -23 15 -30 8 -7 15
-20 15 -30 0 -10 7 -23 15 -30 8 -7 15 -20 15 -30 0 -10 7 -23 15 -30 8 -7 15
-20 15 -30 0 -10 7 -23 15 -30 8 -7 15 -20 15 -30 0 -10 7 -23 15 -30 8 -7 15
-20 15 -29 0 -10 10 -27 23 -39 34 -32 134 -32 165 1 12 13 22 30 22 39 0 9 7
21 15 28 8 7 15 20 15 30 0 10 7 23 15 30 8 7 15 27 15 45 0 18 7 38 15 45 8
7 15 20 15 30 0 10 7 23 15 30 8 7 15 20 15 30 0 10 7 23 15 30 8 7 15 20 15
30 0 10 7 23 15 30 8 7 15 20 15 30 0 10 7 23 15 30 8 7 15 20 15 30 0 10 7
23 15 30 8 7 15 20 15 30 0 10 7 23 15 30 8 7 15 20 15 30 0 10 7 23 15 30 8
7 15 20 15 30 0 10 7 23 15 30 8 7 15 20 15 30 0 10 7 23 15 30 8 7 15 20 15
30 0 10 7 23 15 30 8 7 15 20 15 30 0 10 7 23 15 30 8 7 15 20 15 30 0 10 7
23 15 30 8 7 15 20 15 30 0 10 7 23 15 30 8 7 15 20 15 30 0 10 7 23 15 30 8
7 15 20 15 30 0 10 7 23 15 30 8 7 15 20 15 30 0 10 7 23 15 30 8 7 15 20 15
30 0 10 7 23 15 30 8 7 15 20 15 30 0 10 7 23 15 30 8 7 15 20 15 30 0 10 7
23 15 30 8 7 15 20 15 30 0 10 7 23 15 30 8 7 15 20 15 30 0 10 7 23 15 30 8
7 15 27 15 45 0 18 7 38 15 45 8 7 15 20 15 30 0 10 7 23 15 30 8 7 15 20 15
30 0 10 7 23 15 30 8 7 15 20 15 30 0 10 7 23 15 30 8 7 15 20 15 30 0 10 7
23 15 30 8 7 15 20 15 30 0 10 7 23 15 30 8 7 15 20 15 30 0 10 7 23 15 30 8
7 15 20 15 30 0 10 7 23 15 30 8 7 15 20 15 30 0 10 7 23 15 30 8 7 15 20 15
30 0 10 7 23 15 30 8 7 15 20 15 30 0 10 7 23 15 30 8 7 15 20 15 30 0 10 7
23 15 30 8 7 15 20 15 30 0 10 7 23 15 30 8 7 15 20 15 30 0 10 7 23 15 30 8
7 15 20 15 30 0 10 7 23 15 30 8 7 15 20 15 30 0 10 7 23 15 30 8 7 15 20 15
30 0 10 7 23 15 30 23 19 19 73 -8 98 l-23 22 -661 0 c-575 0 -662 -2 -673
-15 -7 -8 -20 -15 -29 -15 -22 0 -61 -41 -61 -63 0 -10 -7 -20 -15 -23 -8 -4
-15 -12 -15 -19 0 -7 7 -15 15 -19 8 -3 15 -14 15 -24 0 -10 10 -28 23 -40 23
-22 25 -22 553 -24 528 -3 529 -3 532 -24 2 -11 -4 -27 -13 -34 -8 -7 -15 -20
-15 -30 0 -10 -7 -23 -15 -30 -8 -7 -15 -20 -15 -30 0 -10 -7 -23 -15 -30 -8
-7 -15 -20 -15 -30 0 -10 -7 -23 -15 -30 -8 -7 -15 -20 -15 -30 0 -10 -7 -23
-15 -30 -8 -7 -15 -20 -15 -30 0 -10 -7 -23 -15 -30 -8 -7 -15 -20 -15 -30 0
-10 -7 -23 -15 -30 -8 -7 -15 -20 -15 -30 0 -10 -7 -23 -15 -30 -8 -7 -15 -20
-15 -30 0 -10 -7 -23 -15 -30 -8 -7 -15 -20 -15 -30 0 -10 -7 -23 -15 -30 -8
-7 -15 -20 -15 -30 0 -10 -7 -23 -15 -30 -8 -7 -15 -27 -15 -45 0 -18 -7 -38
-15 -45 -8 -7 -15 -20 -15 -30 0 -10 -7 -23 -15 -30 -8 -7 -15 -20 -15 -30 0
-10 -7 -23 -15 -30 -8 -7 -15 -20 -15 -30 0 -10 -7 -23 -15 -30 -8 -7 -15 -20
-15 -30 0 -10 -7 -23 -15 -30 -8 -7 -15 -20 -15 -30 0 -10 -7 -23 -15 -30 -8
-7 -15 -20 -15 -30 0 -10 -7 -23 -15 -30 -8 -7 -15 -20 -15 -30 0 -10 -7 -23
-15 -30 -8 -7 -15 -20 -15 -30 0 -10 -7 -23 -15 -30 -8 -7 -15 -20 -15 -30 0
-10 -7 -23 -15 -30 -8 -7 -15 -20 -15 -30 0 -10 -7 -23 -15 -30 -8 -7 -15 -20
-15 -30 0 -10 -7 -23 -15 -30 -8 -7 -15 -20 -15 -30 0 -10 -7 -23 -15 -30 -8
-7 -15 -20 -15 -30 0 -10 -7 -23 -15 -30 -8 -7 -15 -20 -15 -30 0 -10 -7 -23
-15 -30 -8 -7 -15 -20 -15 -30 0 -10 -7 -23 -15 -30 -8 -7 -15 -20 -15 -30 0
-10 -7 -23 -15 -30 -8 -7 -15 -20 -15 -30 0 -10 -7 -23 -15 -30 -8 -7 -15 -20
-15 -30 0 -10 -7 -23 -15 -30 -8 -7 -15 -20 -15 -30 0 -10 -7 -23 -15 -30 -8
-7 -15 -20 -15 -30 0 -10 -7 -23 -15 -30 -8 -7 -15 -23 -15 -36 0 -13 -5 -24
-11 -24 -15 0 -48 42 -49 61 0 9 -7 22 -15 29 -8 7 -15 20 -15 30 0 10 -7 23
-15 30 -8 7 -15 20 -15 30 0 10 -7 23 -15 30 -8 7 -15 20 -15 30 0 10 -7 23
-15 30 -8 7 -15 27 -15 45 0 18 -7 38 -15 45 -8 7 -15 20 -15 30 0 10 -7 23
-15 30 -8 7 -15 20 -15 30 0 10 -7 23 -15 30 -8 7 -15 20 -15 30 0 10 -7 23
-15 30 -8 7 -15 20 -15 30 0 10 -7 23 -15 30 -8 7 -15 20 -15 30 0 10 -7 23
-15 30 -8 7 -15 20 -15 30 0 10 -7 23 -15 30 -8 7 -15 20 -15 30 0 10 -7 23
-15 30 -8 7 -15 27 -15 45 0 18 -7 38 -15 45 -8 7 -15 20 -15 30 0 10 -7 23
-15 30 -8 7 -15 20 -15 30 0 10 -7 23 -15 30 -8 7 -15 20 -15 30 0 10 -7 23
-15 30 -8 7 -15 20 -15 30 0 10 -7 23 -15 30 -8 7 -15 20 -15 30 0 10 -7 23
-15 30 -8 7 -15 20 -15 30 0 10 -7 23 -15 30 -8 7 -15 20 -15 30 0 10 -7 23
-15 30 -8 7 -15 20 -15 30 0 10 -7 23 -15 30 -8 7 -15 27 -15 45 0 18 -7 38
-15 45 -8 7 -15 20 -15 30 0 10 -7 23 -15 30 -8 7 -15 20 -15 30 0 10 -7 23
-15 30 -8 7 -15 20 -15 30 0 10 -7 23 -15 30 -8 7 -15 20 -15 30 0 10 -7 23
-15 30 -8 7 -15 20 -15 30 0 10 -7 23 -15 30 -8 7 -15 20 -15 30 0 10 -7 23
-15 30 -8 7 -15 20 -15 30 0 10 -7 23 -15 30 -8 7 -15 27 -15 45 0 18 -7 38
-15 45 -8 7 -15 20 -15 30 0 10 -7 23 -15 30 -8 7 -15 20 -15 30 0 10 -7 23
-15 30 -8 7 -15 20 -15 30 0 10 -7 23 -15 30 -8 7 -15 20 -15 30 0 10 -7 23
-15 30 -8 7 -15 20 -15 30 0 10 -7 23 -15 30 -8 7 -15 20 -15 30 0 10 -7 23
-15 30 -8 7 -15 20 -15 30 0 10 -7 23 -15 30 -8 7 -15 20 -15 30 0 10 -7 23
-15 30 -8 7 -15 27 -15 45 0 18 -7 38 -15 45 -8 7 -15 20 -15 30 0 10 -7 23
-15 30 -8 7 -15 20 -15 30 0 10 -7 23 -15 30 -8 7 -15 20 -15 30 0 10 -7 23
-15 30 -8 7 -15 20 -15 30 0 10 -7 23 -15 30 -8 7 -15 20 -15 30 0 10 -7 23
-15 30 -8 7 -15 20 -15 30 0 10 -7 23 -15 30 -8 7 -15 20 -15 30 0 10 -7 23
-15 30 -8 7 -15 27 -15 45 0 18 -7 38 -15 45 -8 7 -15 20 -15 30 0 10 -7 23
-15 30 -8 7 -15 20 -15 30 0 10 -7 23 -15 30 -8 7 -15 20 -15 30 0 10 -7 23
-15 30 -8 7 -15 21 -15 32 0 10 -7 21 -15 24 -8 4 -15 12 -15 20 0 12 245 14
1643 14 l1644 0 21 23 c32 34 32 134 -1 165 -13 12 -30 22 -39 22 -9 0 -21 7
-28 15 -11 13 -218 15 -1754 15 l-1743 0 -21 -23z"/>
<path d="M1827 4332 c-20 -21 -37 -45 -37 -54 0 -8 -7 -21 -15 -28 -8 -7 -15
-20 -15 -30 0 -10 -7 -23 -15 -30 -8 -7 -15 -20 -15 -30 0 -10 -7 -23 -15 -30
-8 -7 -15 -20 -15 -30 0 -10 -7 -23 -15 -30 -8 -7 -15 -27 -15 -45 0 -18 -7
-38 -15 -45 -8 -7 -15 -20 -15 -30 0 -10 -7 -23 -15 -30 -8 -7 -15 -20 -15
-30 0 -10 -7 -23 -15 -30 -8 -7 -15 -20 -15 -30 0 -10 -7 -23 -15 -30 -8 -7
-15 -27 -15 -45 0 -18 -7 -38 -15 -45 -8 -7 -15 -20 -15 -30 0 -10 -7 -23 -15
-30 -8 -7 -15 -20 -15 -30 0 -10 -7 -23 -15 -30 -8 -7 -15 -20 -15 -30 0 -10
-7 -23 -15 -30 -8 -7 -15 -20 -15 -30 0 -10 -7 -23 -15 -30 -8 -7 -15 -27 -15
-45 0 -18 -7 -38 -15 -45 -8 -7 -15 -20 -15 -30 0 -10 -7 -23 -15 -30 -8 -7
-15 -20 -15 -30 0 -10 -7 -23 -15 -30 -8 -7 -15 -20 -15 -30 0 -10 -7 -23 -15
-30 -8 -7 -15 -27 -15 -45 0 -18 -7 -38 -15 -45 -8 -7 -15 -20 -15 -30 0 -10
-7 -23 -15 -30 -8 -7 -15 -20 -15 -30 0 -10 -7 -23 -15 -30 -8 -7 -15 -20 -15
-30 0 -10 -7 -23 -15 -30 -8 -7 -15 -27 -15 -45 0 -18 -7 -38 -15 -45 -8 -7
-15 -20 -15 -30 0 -10 -7 -23 -15 -30 -8 -7 -15 -20 -15 -30 0 -10 -7 -23 -15
-30 -8 -7 -15 -20 -15 -30 0 -10 -7 -23 -15 -30 -8 -7 -15 -27 -15 -45 0 -18
-7 -38 -15 -45 -8 -7 -15 -20 -15 -30 0 -10 -7 -23 -15 -30 -8 -7 -15 -20 -15
-30 0 -10 -7 -23 -15 -30 -8 -7 -15 -20 -15 -30 0 -10 -7 -23 -15 -30 -8 -7
-15 -20 -15 -30 0 -10 -7 -23 -15 -30 -8 -7 -15 -27 -15 -45 0 -18 -7 -38 -15
-45 -8 -7 -15 -20 -15 -30 0 -10 -7 -23 -15 -30 -8 -7 -15 -20 -15 -30 0 -10
-7 -23 -15 -30 -8 -7 -15 -20 -15 -30 0 -10 -7 -23 -15 -30 -8 -7 -15 -27 -15
-45 0 -18 -7 -38 -15 -45 -8 -7 -15 -20 -15 -30 0 -10 -7 -23 -15 -30 -8 -7
-15 -20 -15 -30 0 -10 -7 -23 -15 -30 -8 -7 -15 -20 -15 -30 0 -10 -7 -23 -15
-30 -8 -7 -15 -27 -15 -45 0 -18 -7 -38 -15 -45 -8 -7 -15 -20 -15 -30 0 -10
-7 -23 -15 -30 -8 -7 -15 -20 -15 -30 0 -10 -7 -23 -15 -30 -8 -7 -15 -20 -15
-30 0 -10 -7 -23 -15 -30 -8 -7 -15 -20 -15 -30 0 -10 -7 -23 -15 -30 -8 -7
-15 -27 -15 -45 0 -18 -7 -38 -15 -45 -8 -7 -15 -20 -15 -30 0 -10 -7 -23 -15
-30 -8 -7 -15 -20 -15 -30 0 -10 -7 -23 -15 -30 -8 -7 -15 -20 -15 -30 0 -10
-7 -23 -15 -30 -8 -7 -15 -27 -15 -45 0 -18 -7 -38 -15 -45 -8 -7 -15 -20 -15
-30 0 -10 -7 -23 -15 -30 -8 -7 -15 -20 -15 -30 0 -10 -7 -23 -15 -30 -8 -7
-15 -20 -15 -30 0 -10 -7 -23 -15 -30 -8 -7 -15 -27 -15 -45 0 -18 -7 -38 -15
-45 -8 -7 -15 -20 -15 -30 0 -10 -7 -23 -15 -30 -8 -7 -15 -20 -15 -30 0 -10
-7 -23 -15 -30 -8 -7 -15 -20 -15 -30 0 -10 -7 -23 -15 -30 -8 -7 -15 -20 -15
-30 0 -10 -7 -23 -15 -30 -11 -9 -15 -33 -15 -89 0 -68 3 -80 23 -99 34 -32
134 -32 165 1 12 13 22 30 22 39 0 9 7 21 15 28 8 7 15 20 15 30 0 10 7 23 15
30 8 7 15 20 15 30 0 10 7 23 15 30 8 7 15 20 15 30 0 10 7 23 15 30 8 7 15
20 15 30 0 10 7 23 15 30 8 7 15 27 15 45 0 18 7 38 15 45 8 7 15 20 15 30 0
10 7 23 15 30 8 7 15 20 15 30 0 10 7 23 15 30 8 7 15 20 15 30 0 10 7 23 15
30 8 7 15 27 15 45 0 18 7 38 15 45 8 7 15 20 15 30 0 10 7 23 15 30 8 7 15
20 15 30 0 10 7 23 15 30 8 7 15 20 15 30 0 10 7 23 15 30 8 7 15 27 15 45 0
18 7 38 15 45 8 7 15 20 15 30 0 10 7 23 15 30 8 7 15 20 15 30 0 10 7 23 15
30 8 7 15 20 15 30 0 10 7 23 15 30 8 7 15 20 15 30 0 10 7 23 15 30 8 7 15
27 15 45 0 18 7 38 15 45 8 7 15 20 15 30 0 10 7 23 15 30 8 7 15 20 15 30 0
10 7 23 15 30 8 7 15 20 15 30 0 10 7 23 15 30 8 7 15 27 15 45 0 18 7 38 15
45 8 7 15 20 15 30 0 10 7 23 15 30 8 7 15 20 15 30 0 10 7 23 15 30 8 7 15
20 15 30 0 10 7 23 15 30 8 7 15 27 15 45 0 18 7 38 15 45 8 7 15 20 15 30 0
10 7 23 15 30 8 7 15 20 15 30 0 10 7 23 15 30 8 7 15 20 15 30 0 10 7 23 15
30 8 7 15 20 15 30 0 10 7 23 15 30 8 7 15 27 15 45 0 18 7 38 15 45 8 7 15
20 15 30 0 10 7 23 15 30 8 7 15 20 15 30 0 10 7 23 15 30 8 7 15 20 15 30 0
10 7 23 15 30 8 7 15 27 15 45 0 18 7 38 15 45 8 7 15 20 15 30 0 10 7 23 15
30 8 7 15 20 15 30 0 10 7 23 15 30 8 7 15 20 15 30 0 10 7 23 15 30 8 7 15
27 15 45 0 18 7 38 15 45 8 7 15 20 15 30 0 10 7 23 15 30 8 7 15 20 15 30 0
10 7 23 15 30 8 7 15 20 15 30 0 10 7 23 15 30 8 7 15 20 15 30 0 10 7 23 15
30 8 7 15 27 15 45 0 18 7 38 15 45 8 7 15 20 15 30 0 10 7 23 15 30 8 7 15
20 15 30 0 10 7 23 15 30 8 7 15 20 15 30 0 10 7 23 15 30 8 7 15 27 15 45 0
18 7 38 15 45 8 7 15 20 15 30 0 10 7 23 15 30 8 7 15 20 15 30 0 10 7 23 15
30 8 7 15 20 15 30 0 10 7 23 15 30 8 7 15 27 15 44 1 31 29 76 49 76 6 0 11
-11 11 -24 0 -13 7 -29 15 -36 8 -7 15 -20 15 -30 0 -10 7 -23 15 -30 8 -7 15
-20 15 -30 0 -10 7 -23 15 -30 8 -7 15 -20 15 -30 0 -10 7 -23 15 -30 8 -7 15
-20 15 -30 0 -10 7 -23 15 -30 8 -7 15 -20 15 -30 0 -10 7 -23 15 -30 8 -7 15
-20 15 -30 0 -10 7 -23 15 -30 8 -7 15 -20 15 -30 0 -10 7 -23 15 -30 8 -7 15
-20 15 -30 0 -10 7 -23 15 -30 8 -7 15 -27 15 -45 0 -18 7 -38 15 -45 8 -7 15
-20 15 -30 0 -10 7 -23 15 -30 8 -7 15 -20 15 -30 0 -10 7 -23 15 -30 8 -7 15
-20 15 -30 0 -10 7 -23 15 -30 8 -7 15 -20 15 -30 0 -10 7 -23 15 -30 8 -7 15
-20 15 -30 0 -10 7 -23 15 -30 8 -7 15 -20 15 -30 0 -10 7 -23 15 -30 8 -7 15
-20 15 -30 0 -10 7 -23 15 -30 8 -7 15 -20 15 -30 0 -10 7 -23 15 -30 8 -7 15
-20 15 -30 0 -10 7 -23 15 -30 8 -7 15 -20 15 -30 0 -10 7 -23 15 -30 8 -7 15
-20 15 -30 0 -10 7 -23 15 -30 8 -7 15 -27 15 -45 0 -18 7 -38 15 -45 8 -7 15
-20 15 -30 0 -10 7 -23 15 -30 8 -7 15 -20 15 -30 0 -10 7 -23 15 -30 8 -7 15
-20 15 -30 0 -10 7 -23 15 -30 8 -7 15 -20 15 -30 0 -10 7 -23 15 -30 8 -7 15
-20 15 -30 0 -10 7 -23 15 -30 8 -7 15 -20 15 -30 0 -10 7 -23 15 -30 8 -7 15
-20 15 -30 0 -10 7 -23 15 -30 8 -7 15 -20 15 -30 0 -10 7 -23 15 -30 8 -7 15
-20 15 -30 0 -10 7 -23 15 -30 8 -7 15 -20 15 -30 0 -10 7 -23 15 -30 8 -7 15
-20 15 -30 0 -10 7 -23 15 -30 8 -7 15 -27 15 -45 0 -18 7 -38 15 -45 8 -7 15
-20 15 -30 0 -10 7 -23 15 -30 8 -7 15 -20 15 -30 0 -10 7 -23 15 -30 8 -7 15
-20 15 -30 0 -10 7 -23 15 -30 8 -7 15 -20 15 -30 0 -10 7 -23 15 -30 8 -7 15
-20 15 -30 0 -10 7 -23 15 -30 8 -7 15 -20 15 -30 0 -10 7 -23 15 -30 8 -7 15
-20 15 -30 0 -10 7 -23 15 -30 8 -7 15 -20 15 -30 0 -10 7 -23 15 -30 8 -7 15
-20 15 -30 0 -10 7 -23 15 -30 8 -7 15 -20 15 -30 0 -10 7 -23 15 -30 8 -7 15
-20 15 -30 0 -10 7 -23 15 -30 8 -7 15 -27 15 -45 0 -18 7 -38 15 -45 8 -7 15
-20 15 -30 0 -10 7 -23 15 -30 8 -7 15 -20 15 -30 0 -10 7 -23 15 -30 8 -7 15
-20 15 -30 0 -10 7 -23 15 -30 8 -7 15 -20 15 -30 0 -10 7 -23 15 -30 8 -7 15
-20 15 -30 0 -10 7 -23 15 -30 8 -7 15 -20 15 -30 0 -10 7 -23 15 -30 8 -7 15
-21 15 -32 0 -10 7 -21 15 -24 8 -4 15 -12 15 -20 0 -12 -84 -14 -534 -14
-462 0 -535 -2 -546 -15 -7 -8 -20 -15 -29 -15 -10 0 -27 -10 -39 -23 -32 -34
-32 -134 1 -165 l23 -22 690 0 691 0 21 23 c18 19 22 35 22 84 0 42 -5 64 -15
73 -8 7 -15 27 -15 45 0 18 -7 38 -15 45 -8 7 -15 20 -15 30 0 10 -7 23 -15
30 -8 7 -15 20 -15 30 0 10 -7 23 -15 30 -8 7 -15 20 -15 30 0 10 -7 23 -15
30 -8 7 -15 20 -15 30 0 10 -7 23 -15 30 -8 7 -15 20 -15 30 0 10 -7 23 -15
30 -8 7 -15 20 -15 30 0 10 -7 23 -15 30 -8 7 -15 20 -15 30 0 10 -7 23 -15
30 -8 7 -15 20 -15 30 0 10 -7 23 -15 30 -8 7 -15 20 -15 30 0 10 -7 23 -15
30 -8 7 -15 20 -15 30 0 10 -7 23 -15 30 -8 7 -15 20 -15 30 0 10 -7 23 -15
30 -8 7 -15 27 -15 45 0 18 -7 38 -15 45 -8 7 -15 20 -15 30 0 10 -7 23 -15
30 -8 7 -15 20 -15 30 0 10 -7 23 -15 30 -8 7 -15 20 -15 30 0 10 -7 23 -15
30 -8 7 -15 20 -15 30 0 10 -7 23 -15 30 -8 7 -15 20 -15 30 0 10 -7 23 -15
30 -8 7 -15 20 -15 30 0 10 -7 23 -15 30 -8 7 -15 20 -15 30 0 10 -7 23 -15
30 -8 7 -15 20 -15 30 0 10 -7 23 -15 30 -8 7 -15 20 -15 30 0 10 -7 23 -15
30 -8 7 -15 20 -15 30 0 10 -7 23 -15 30 -8 7 -15 20 -15 30 0 10 -7 23 -15
30 -8 7 -15 27 -15 45 0 18 -7 38 -15 45 -8 7 -15 20 -15 30 0 10 -7 23 -15
30 -8 7 -15 20 -15 30 0 10 -7 23 -15 30 -8 7 -15 20 -15 30 0 10 -7 23 -15
30 -8 7 -15 20 -15 30 0 10 -7 23 -15 30 -8 7 -15 20 -15 30 0 10 -7 23 -15
30 -8 7 -15 20 -15 30 0 10 -7 23 -15 30 -8 7 -15 20 -15 30 0 10 -7 23 -15
30 -8 7 -15 20 -15 30 0 10 -7 23 -15 30 -8 7 -15 20 -15 30 0 10 -7 23 -15
30 -8 7 -15 20 -15 30 0 10 -7 23 -15 30 -8 7 -15 20 -15 30 0 10 -7 23 -15
30 -8 7 -15 27 -15 45 0 18 -7 38 -15 45 -8 7 -15 20 -15 30 0 10 -7 23 -15
30 -8 7 -15 20 -15 30 0 10 -7 23 -15 30 -8 7 -15 20 -15 30 0 10 -7 23 -15
30 -8 7 -15 20 -15 30 0 10 -7 23 -15 30 -8 7 -15 20 -15 30 0 10 -7 23 -15
30 -8 7 -15 20 -15 30 0 10 -7 23 -15 30 -8 7 -15 20 -15 30 0 10 -7 23 -15
30 -8 7 -15 20 -15 30 0 10 -7 23 -15 30 -8 7 -15 20 -15 30 0 10 -7 23 -15
30 -8 7 -15 20 -15 30 0 10 -7 23 -15 30 -8 7 -15 20 -15 30 0 10 -7 23 -15
30 -8 7 -15 27 -15 45 0 18 -7 38 -15 45 -8 7 -15 20 -15 30 0 10 -7 23 -15
30 -8 7 -15 20 -15 30 0 10 -7 23 -15 30 -8 7 -15 20 -15 30 0 10 -7 23 -15
30 -8 7 -15 20 -15 30 0 10 -7 23 -15 30 -8 7 -15 20 -15 30 0 10 -7 23 -15
30 -8 7 -15 20 -15 30 0 10 -7 23 -15 30 -8 7 -15 20 -15 30 0 10 -7 23 -15
30 -8 7 -15 20 -15 30 0 10 -7 23 -15 30 -8 7 -15 20 -15 30 0 10 -7 23 -15
30 -8 7 -15 20 -15 30 0 10 -7 23 -15 30 -8 7 -15 20 -15 29 0 10 -10 27 -23
39 -19 18 -35 22 -83 22 -56 0 -62 -2 -97 -38z"/>
</g>
</svg>
